<svg width="55" height="55" viewBox="0 0 55 55" fill="none" xmlns="http://www.w3.org/2000/svg">
<rect x="1" y="1" width="53" height="53" rx="4" stroke="#FFB900" stroke-width="2" stroke-dasharray="4 4"/>
<path d="M17.5767 12.2222C16.8049 12.2222 16.0648 12.5288 15.519 13.0745C14.9733 13.6202 14.6667 14.3604 14.6667 15.1322V35.5026C14.6667 36.2744 14.9733 37.0146 15.519 37.5603C16.0648 38.1061 16.8049 38.4126 17.5767 38.4126H30.8029C30.7156 37.9325 30.672 37.4523 30.672 36.9576C30.672 35.9682 30.8466 34.9788 31.1812 34.0476H17.5767L22.6693 27.4999L26.3069 31.865L31.3995 25.3174L34.6442 29.6388C36.0556 28.7222 37.7143 28.2275 39.4021 28.2275C39.8968 28.2275 40.377 28.2711 40.8572 28.3584V15.1322C40.8572 13.5171 39.5476 12.2222 37.9471 12.2222H17.5767ZM37.9471 31.1375V35.5026H33.582V38.4126H37.9471V42.7777H40.8572V38.4126H45.2222V35.5026H40.8572V31.1375H37.9471Z" fill="#FFB900"/>
</svg>
