<svg width="55" height="55" viewBox="0 0 55 55" fill="none" xmlns="http://www.w3.org/2000/svg">
<path d="M6.875 9.16663V2.29163H11.4583V9.16663H18.3333V13.75H11.4583V20.625H6.875V13.75H0V9.16663M13.75 22.9166V16.0416H20.625V9.16663H36.6667L40.7917 13.75H48.125C50.6458 13.75 52.7083 15.8125 52.7083 18.3333V45.8333C52.7083 48.3541 50.6458 50.4166 48.125 50.4166H11.4583C8.9375 50.4166 6.875 48.3541 6.875 45.8333V22.9166M29.7917 43.5416C39.9896 43.5416 45.1229 31.2125 37.9042 23.9708C30.6854 16.752 18.3333 21.8854 18.3333 32.0833C18.3333 38.4083 23.4667 43.5416 29.7917 43.5416ZM22.4583 32.0833C22.4583 38.6145 30.3646 41.8916 34.9708 37.2625C39.6 32.6562 36.3229 24.75 29.7917 24.75C25.7583 24.75 22.4583 28.05 22.4583 32.0833Z" fill="black"/>
</svg>
