<svg width="55" height="55" viewBox="0 0 55 55" fill="none" xmlns="http://www.w3.org/2000/svg">
<path d="M11.4583 6.875C10.2428 6.875 9.07697 7.35789 8.21743 8.21743C7.35789 9.07697 6.875 10.2428 6.875 11.4583V43.5417C6.875 44.7572 7.35789 45.923 8.21743 46.7826C9.07697 47.6421 10.2428 48.125 11.4583 48.125H32.2896C32.1521 47.3688 32.0833 46.6125 32.0833 45.8333C32.0833 44.275 32.3583 42.7167 32.8854 41.25H11.4583L19.4792 30.9375L25.2083 37.8125L33.2292 27.5L38.3396 34.3063C40.5625 32.8625 43.175 32.0833 45.8333 32.0833C46.6125 32.0833 47.3688 32.1521 48.125 32.2896V11.4583C48.125 8.91458 46.0625 6.875 43.5417 6.875H11.4583ZM43.5417 36.6667V43.5417H36.6667V48.125H43.5417V55H48.125V48.125H55V43.5417H48.125V36.6667H43.5417Z" fill="black"/>
</svg>
